<?xml version="1.0" standalone="no"?>
<!DOCTYPE svg PUBLIC "-//W3C//DTD SVG 20010904//EN"
 "http://www.w3.org/TR/2001/REC-SVG-20010904/DTD/svg10.dtd">
<svg version="1.0" xmlns="http://www.w3.org/2000/svg"
 width="529.000000pt" height="530.000000pt" viewBox="0 0 529.000000 530.000000"
 preserveAspectRatio="xMidYMid meet">

<g transform="translate(0.000000,530.000000) scale(0.100000,-0.100000)"
fill="#000000" stroke="none">
<path d="M2455 5108 c-205 -19 -448 -73 -629 -137 -202 -72 -442 -203 -616
-337 -196 -150 -339 -293 -472 -471 -40 -54 -76 -99 -80 -101 -5 -2 -8 -8 -8
-14 0 -5 -8 -22 -19 -36 -10 -15 -28 -43 -39 -62 -11 -19 -36 -64 -56 -98 -20
-35 -36 -68 -36 -72 0 -4 -13 -34 -30 -65 -16 -31 -36 -75 -44 -98 -8 -23 -28
-80 -45 -127 -17 -47 -31 -95 -31 -107 0 -12 -4 -24 -9 -27 -5 -3 -11 -20 -14
-38 -3 -18 -10 -53 -16 -78 -59 -256 -70 -618 -27 -877 14 -81 32 -175 41
-208 9 -33 20 -76 25 -95 4 -19 10 -42 13 -50 3 -8 22 -60 42 -115 140 -387
380 -726 721 -1015 44 -38 210 -160 217 -160 4 0 37 -20 75 -44 107 -70 340
-177 477 -221 37 -11 57 -17 175 -50 100 -28 152 -36 395 -60 133 -13 186 -14
315 -5 85 6 174 16 197 21 23 5 55 9 71 9 17 0 92 16 168 35 128 32 163 43
219 65 11 4 36 14 55 20 210 75 527 258 685 397 134 117 248 236 351 364 70
88 198 286 241 374 58 116 90 188 103 225 7 19 16 44 21 55 29 68 79 250 100
360 28 154 34 228 34 465 0 238 -5 296 -34 455 -21 109 -61 254 -97 350 -14
39 -29 79 -32 89 -3 11 -34 78 -70 150 -148 297 -354 564 -592 768 -67 57
-236 182 -270 200 -14 7 -55 32 -92 55 -36 24 -70 43 -74 43 -5 0 -42 18 -84
39 -41 22 -120 56 -175 76 -55 20 -109 40 -120 45 -49 20 -243 66 -355 84
-209 34 -397 42 -575 24z m444 -188 c31 -5 88 -14 126 -21 241 -39 587 -166
737 -271 14 -10 28 -18 31 -18 19 0 222 -151 356 -265 43 -36 212 -227 265
-299 152 -207 280 -461 346 -686 71 -246 85 -350 85 -640 0 -250 -8 -322 -55
-520 -42 -176 -137 -416 -222 -560 -31 -52 -141 -223 -153 -236 -5 -7 -17 -20
-25 -31 -103 -130 -266 -296 -360 -367 -30 -22 -57 -43 -60 -46 -3 -3 -28 -22
-57 -42 -251 -178 -596 -320 -888 -366 -177 -28 -224 -32 -380 -32 -156 0
-203 4 -380 32 -124 19 -341 80 -445 125 -95 41 -269 129 -319 161 -74 47
-171 113 -195 132 -83 66 -228 195 -261 231 -70 78 -140 161 -149 178 -5 9
-21 30 -36 47 -65 75 -208 337 -271 495 -146 370 -187 806 -114 1204 15 77 30
154 36 170 137 437 287 696 569 985 197 201 502 406 730 489 19 7 44 17 55 22
40 17 174 58 251 77 73 18 107 25 264 50 76 13 451 14 519 2z"/>
<path d="M2694 4523 c-9 -21 -20 -47 -25 -58 -67 -152 -69 -159 -47 -170 21
-9 26 -5 53 40 8 13 19 15 62 9 47 -6 52 -9 55 -33 2 -20 9 -27 32 -29 26 -3
28 -2 23 25 -3 15 -15 62 -27 103 -12 41 -24 86 -27 100 -8 37 -22 50 -54 50
-23 0 -31 -7 -45 -37z m64 -85 c11 -42 8 -48 -24 -48 -33 0 -38 15 -18 60 20
45 27 42 42 -12z"/>
<path d="M2382 4530 c-32 -20 -62 -71 -62 -107 0 -38 21 -92 46 -117 23 -22
36 -26 84 -26 42 0 64 5 83 20 56 44 60 154 8 212 -37 41 -110 49 -159 18z
m131 -79 c28 -69 0 -131 -59 -131 -46 0 -74 38 -74 100 0 32 6 52 18 62 42 38
94 24 115 -31z"/>
<path d="M2965 4501 c-51 -31 -66 -55 -72 -116 -10 -96 36 -149 129 -149 49
-1 89 34 68 59 -11 14 -15 14 -36 0 -32 -20 -56 -19 -88 6 -30 24 -34 58 -12
111 20 47 55 65 95 48 17 -7 33 -21 37 -32 8 -26 38 -19 42 10 4 27 -13 46
-63 66 -48 20 -63 20 -100 -3z"/>
<path d="M2118 4468 c-43 -25 -72 -83 -62 -126 31 -129 141 -172 232 -89 29
27 31 77 2 77 -10 0 -25 -10 -31 -22 -31 -57 -84 -67 -117 -20 -26 36 -37 94
-23 121 14 26 69 42 94 27 15 -9 21 -7 33 9 13 18 13 21 -3 32 -26 19 -84 15
-125 -9z"/>
<path d="M3218 4427 c-35 -54 -109 -217 -103 -227 14 -23 43 -9 66 35 26 49
39 53 88 29 44 -22 48 -38 22 -86 -16 -31 -19 -44 -10 -54 23 -28 39 -11 94
102 43 89 53 119 45 129 -17 20 -38 7 -60 -35 l-20 -38 -50 24 c-54 26 -60 41
-35 84 19 33 18 37 -4 49 -15 9 -22 6 -33 -12z"/>
<path d="M1847 4353 c-11 -10 -8 -38 7 -69 38 -80 48 -105 43 -110 -2 -3 -29
15 -59 39 -76 62 -93 70 -108 52 -13 -15 -8 -38 21 -102 20 -44 24 -73 12 -73
-5 1 -32 23 -62 50 -56 52 -84 62 -95 34 -4 -9 -5 -18 -4 -18 5 -3 143 -121
172 -148 27 -24 31 -25 53 -11 29 19 29 19 -3 98 -15 36 -24 69 -20 72 3 3 32
-15 65 -40 33 -26 63 -47 69 -47 5 0 17 9 26 19 16 18 15 25 -35 140 -48 111
-64 133 -82 114z"/>
<path d="M3498 4272 c-9 -9 -43 -57 -77 -106 -47 -69 -58 -92 -50 -103 16 -19
37 -16 49 6 5 11 16 26 22 33 7 8 18 21 23 30 6 8 27 39 48 69 43 62 43 65 18
78 -14 8 -22 6 -33 -7z"/>
<path d="M3536 4110 c-47 -50 -86 -94 -86 -99 0 -5 7 -15 16 -22 14 -11 24 -5
75 48 32 34 62 57 65 52 5 -9 -4 -58 -27 -150 -11 -42 -5 -65 19 -74 12 -4 41
19 104 83 88 89 103 117 71 129 -12 5 -30 -8 -63 -45 -69 -78 -79 -68 -49 48
18 70 7 120 -27 120 -6 0 -50 -41 -98 -90z"/>
<path d="M1519 4087 c-17 -17 -42 -47 -57 -65 l-26 -34 85 -79 c119 -112 109
-110 174 -42 30 32 55 66 55 76 0 29 -36 19 -64 -18 -30 -39 -55 -44 -80 -17
-15 18 -15 21 14 57 34 43 36 53 15 61 -9 4 -29 -8 -51 -30 -35 -35 -38 -36
-55 -20 -26 24 -24 35 16 74 38 37 44 55 19 64 -10 4 -26 -6 -45 -27z"/>
<path d="M3793 3933 c-35 -7 -111 -80 -118 -114 -9 -39 9 -81 46 -108 17 -13
28 -29 25 -36 -2 -7 2 -19 10 -26 11 -9 25 -5 69 25 30 20 55 42 55 49 0 25
-51 89 -67 83 -8 -3 -17 -6 -19 -6 -3 0 2 -13 10 -29 13 -25 14 -31 1 -41 -22
-18 -47 -8 -67 26 -24 41 -11 73 44 109 61 41 117 16 128 -58 4 -24 10 -32 25
-32 17 0 20 6 19 43 -2 75 -81 132 -161 115z"/>
<path d="M1361 3896 c-18 -21 -5 -39 54 -71 30 -16 54 -34 52 -40 -2 -5 -43
-11 -94 -13 -85 -3 -91 -4 -104 -29 -13 -24 -12 -27 10 -42 50 -35 195 -121
202 -121 5 0 13 9 19 19 9 17 1 25 -60 64 -38 24 -66 47 -63 51 3 3 48 6 98 6
76 0 95 3 108 18 10 10 17 23 17 28 0 6 -28 27 -62 47 -95 57 -101 61 -130 80
-31 21 -33 21 -47 3z"/>
<path d="M2689 3859 c-42 -9 -250 -48 -324 -59 -135 -21 -145 -26 -97 -51 15
-8 57 -31 94 -52 69 -39 79 -41 237 -46 86 -2 49 -15 -57 -21 l-96 -5 -13 -60
c-7 -33 -10 -65 -8 -71 2 -7 47 -12 129 -12 70 -1 135 -6 146 -12 10 -5 33
-10 49 -10 17 0 39 -4 49 -9 16 -8 99 -38 134 -48 13 -4 18 3 22 29 2 18 8 55
13 83 l8 49 80 14 c44 7 98 18 119 24 l40 10 -25 19 c-13 10 -27 19 -31 19 -3
0 -37 17 -75 39 -37 21 -93 52 -123 68 -30 16 -89 49 -131 71 -81 44 -83 45
-140 31z"/>
<path d="M2542 3409 c-177 -70 -220 -298 -81 -423 53 -48 100 -66 176 -66 65
0 99 12 156 54 50 37 96 132 97 198 0 37 -22 118 -32 118 -4 0 -8 6 -8 13 0
19 -69 81 -113 101 -61 28 -133 30 -195 5z"/>
<path d="M2163 3303 c-15 -54 -39 -175 -52 -261 -14 -93 -14 -404 0 -474 24
-123 32 -157 56 -238 62 -208 168 -387 330 -556 73 -76 210 -191 217 -183 2 2
6 31 10 64 3 33 8 78 11 100 4 22 11 72 16 110 10 66 40 222 61 310 5 22 12
54 14 70 3 17 9 39 14 50 5 11 25 72 45 135 21 63 70 183 111 265 58 119 91
173 161 260 76 94 103 120 188 176 54 37 101 72 103 78 5 14 -35 14 -95 0
-210 -50 -441 -216 -691 -497 -37 -42 -81 -91 -98 -110 l-30 -35 -37 32 c-72
64 -207 272 -207 321 0 5 -4 18 -10 28 -18 32 -59 187 -75 282 -9 52 -20 99
-24 103 -4 4 -12 -9 -18 -30z"/>
<path d="M3369 3044 c-41 -31 -77 -63 -82 -70 -4 -7 -39 -52 -77 -101 -85
-107 -196 -319 -252 -483 -21 -63 -43 -124 -47 -135 -24 -55 -81 -332 -101
-485 -6 -41 -13 -90 -16 -107 -8 -42 7 -42 25 0 7 17 19 46 26 62 7 17 30 68
50 115 92 211 100 224 109 168 12 -76 15 -95 25 -138 16 -73 61 -203 82 -235
l20 -30 -5 70 c-19 260 -18 331 15 600 30 258 140 565 270 756 22 33 39 63 36
65 -2 3 -37 -21 -78 -52z"/>
<path d="M1143 2948 c-5 -7 -26 -67 -47 -133 -21 -66 -43 -132 -49 -147 l-12
-28 -130 -2 c-71 -1 -146 0 -167 1 -20 1 -39 -2 -42 -8 -4 -6 24 -32 61 -58
167 -119 203 -148 203 -163 0 -9 -20 -78 -45 -153 -42 -129 -52 -167 -40 -167
2 0 57 39 122 86 65 48 128 91 139 96 23 11 36 2 199 -119 39 -29 76 -53 83
-53 6 0 12 -5 12 -12 0 -6 2 -9 5 -6 5 4 -15 72 -75 254 -11 34 -20 68 -20 76
0 8 25 32 57 54 31 21 61 43 67 49 6 6 42 33 79 59 79 56 76 65 -23 64 -212 0
-261 2 -264 15 -12 42 -99 307 -101 307 -1 0 -7 -6 -12 -12z"/>
<path d="M4136 2949 c-2 -8 -25 -80 -51 -161 l-47 -148 -36 -1 c-21 -1 -92 -1
-159 1 -176 2 -180 -1 -91 -63 175 -124 208 -151 208 -170 0 -11 -20 -80 -46
-154 -25 -74 -44 -142 -42 -150 2 -10 43 14 136 81 73 53 136 96 142 96 9 0
43 -24 205 -141 50 -36 71 -46 73 -35 3 13 -55 206 -79 264 -17 43 -10 60 39
93 131 90 222 163 210 170 -7 5 -74 8 -148 8 -74 -1 -147 -1 -162 0 -25 1 -29
8 -63 119 -20 64 -41 125 -46 134 -5 10 -9 24 -9 32 0 7 -7 19 -15 26 -12 10
-16 10 -19 -1z"/>
<path d="M3872 1464 c-29 -25 -52 -51 -52 -58 0 -6 33 -47 73 -91 l73 -79 52
48 c73 68 69 110 -5 46 -40 -36 -44 -36 -61 -9 -12 19 -11 24 12 48 14 15 26
32 26 39 0 19 -29 14 -53 -8 -12 -11 -28 -19 -37 -18 -27 6 -22 37 10 67 24
22 30 33 23 45 -7 14 -17 9 -61 -30z"/>
<path d="M1353 1458 c-6 -7 -13 -21 -16 -30 -4 -12 -17 -18 -35 -18 -36 0 -62
-28 -62 -65 0 -21 14 -41 57 -81 32 -29 61 -50 65 -48 5 3 5 10 2 16 -4 5 8
23 26 40 24 21 30 32 22 40 -8 8 -15 8 -26 -2 -13 -10 -17 -9 -22 4 -9 24 3
46 26 46 56 0 82 57 42 93 -22 20 -66 22 -79 5z m60 -35 c9 -9 -13 -34 -24
-27 -14 8 -11 34 4 34 8 0 17 -3 20 -7z m-93 -88 c0 -37 -8 -43 -28 -23 -16
16 -15 45 1 51 24 10 27 7 27 -28z"/>
<path d="M3736 1348 c-10 -6 -26 -17 -35 -24 -9 -8 -24 -20 -35 -27 -18 -13
-16 -18 39 -96 61 -87 91 -113 101 -87 3 9 -4 32 -16 52 -19 30 -20 38 -9 45
20 13 26 11 69 -13 31 -18 42 -20 51 -11 16 16 -9 46 -52 63 -24 10 -29 18
-29 46 0 23 -7 38 -22 48 -26 19 -36 19 -62 4z m42 -61 c4 -21 -15 -47 -35
-47 -23 0 -34 43 -15 58 22 17 46 11 50 -11z"/>
<path d="M1560 1306 c0 -7 10 -20 23 -29 16 -11 19 -19 12 -29 -87 -124 -101
-158 -65 -158 11 0 20 4 20 9 0 5 6 16 13 23 7 7 28 35 46 61 24 36 37 47 49
42 42 -18 52 -17 52 1 -1 12 -23 33 -61 57 -63 39 -89 46 -89 23z"/>
<path d="M3543 1221 c-38 -22 -63 -43 -63 -53 0 -19 25 -25 35 -8 15 24 36 5
77 -65 27 -47 49 -74 61 -75 31 0 17 39 -54 159 -11 19 -11 25 -1 28 20 8 43
34 37 44 -10 15 -26 9 -92 -30z"/>
<path d="M1696 1134 c-47 -92 -43 -126 19 -161 49 -28 65 -28 97 -4 31 25 92
145 85 166 -11 26 -26 17 -56 -37 -45 -81 -60 -98 -84 -98 -54 0 -59 37 -17
120 34 68 37 90 12 90 -12 0 -30 -24 -56 -76z"/>
<path d="M3416 1141 c-3 -5 5 -34 19 -65 14 -31 21 -56 17 -56 -11 0 -74 40
-99 62 -12 11 -31 18 -45 16 -19 -2 -23 -9 -22 -33 2 -42 71 -188 87 -182 20
6 19 33 -2 78 -36 74 -27 77 61 15 49 -34 67 -42 81 -35 22 13 21 20 -3 75
-11 24 -29 64 -40 89 -19 42 -41 57 -54 36z"/>
<path d="M1916 1018 c-41 -107 -44 -128 -17 -128 13 0 23 14 36 48 9 26 26 67
36 91 22 48 22 74 -2 79 -12 2 -26 -21 -53 -90z"/>
<path d="M2020 1060 c0 -15 7 -20 25 -20 18 0 25 -5 25 -19 0 -18 -15 -70 -30
-106 -19 -42 -16 -70 6 -73 19 -3 24 6 39 55 32 105 36 113 70 110 54 -4 34
25 -35 50 -80 29 -100 29 -100 3z"/>
<path d="M3205 1063 c-35 -6 -100 -26 -109 -34 -9 -8 49 -205 63 -213 14 -9
141 35 141 49 0 17 -23 25 -41 14 -8 -5 -29 -9 -46 -9 -30 0 -33 3 -33 30 0
24 4 30 23 30 31 0 51 15 44 33 -5 13 -12 14 -43 6 -40 -12 -58 -3 -52 27 2
11 16 21 36 25 19 4 39 12 45 18 15 15 -2 29 -28 24z"/>
<path d="M2226 1012 c-7 -12 -46 -178 -46 -198 0 -10 8 -14 22 -12 18 2 25 12
31 43 4 22 12 60 18 85 16 71 15 84 -3 88 -9 2 -19 -1 -22 -6z"/>
<path d="M2944 1000 c-31 -12 -64 -59 -64 -91 0 -37 17 -79 42 -106 44 -47
158 -20 158 37 0 30 -15 32 -38 5 -47 -54 -112 -20 -112 57 0 50 37 77 82 60
24 -9 30 -8 35 5 13 33 -52 54 -103 33z"/>
<path d="M2365 986 c-36 -16 -49 -30 -65 -77 -17 -47 -7 -85 32 -121 55 -51
133 -33 163 39 29 69 13 124 -47 154 -43 22 -44 22 -83 5z m68 -46 c23 -11 27
-20 27 -54 0 -74 -46 -107 -98 -70 -32 22 -31 86 3 120 14 14 29 23 33 22 4
-2 19 -10 35 -18z"/>
<path d="M2573 973 c-20 -7 -18 -219 1 -226 22 -9 26 2 26 70 0 36 4 63 10 63
6 0 31 -32 56 -71 65 -100 78 -94 82 40 3 116 0 133 -23 125 -11 -5 -15 -21
-15 -59 0 -30 -4 -56 -9 -59 -5 -3 -26 21 -47 54 -38 57 -56 71 -81 63z"/>
</g>
</svg>
